<svg xmlns="http://www.w3.org/2000/svg" width="141" height="48" viewBox="0 0 141 48" fill="none"><g clip-path="url(#clip0_367_151)"><path d="M17.3 14.1992H0V30.4992H17.3V14.1992Z" fill="#C9252C"></path><path d="M19.0996 22.5996H28.9996C32.2996 22.5996 34.9996 25.2996 34.9996 28.5996V46.2996H19.0996V22.5996Z" fill="#C9252C"></path><path d="M19.0996 17H28.7996C31.9996 17 34.5996 19.6 34.5996 22.8V23.9C33.5996 22.1 31.7996 21 29.6996 21H19.0996V17Z" fill="#144E8C"></path><path d="M19.0996 11.9004H28.7996C31.9996 11.9004 34.5996 14.5004 34.5996 17.7004V18.8004C33.5996 17.1004 31.7996 15.9004 29.6996 15.9004H19.0996V11.9004Z" fill="#144E8C"></path><path d="M19.0996 6.80078H28.7996C31.9996 6.80078 34.5996 9.50078 34.5996 12.7008V13.8008C33.5996 12.1008 31.7996 10.9008 29.6996 10.9008H19.0996V6.80078Z" fill="#144E8C"></path><path d="M19.0996 1.69922H28.7996C31.9996 1.69922 34.5996 4.29922 34.5996 7.49922V8.59922C33.5996 6.79922 31.7996 5.69922 29.6996 5.69922H19.0996V1.69922Z" fill="#144E8C"></path><path d="M53.2004 20.7008H41.3004C38.1004 20.7008 35.4004 18.1008 35.4004 14.9008V13.8008C36.4004 15.5008 38.2004 16.7008 40.4004 16.7008H53.2004V20.7008Z" fill="#144E8C"></path><path d="M51.6004 25.8004H41.3004C38.1004 25.8004 35.4004 23.2004 35.4004 20.0004V18.9004C36.4004 20.7004 38.2004 21.8004 40.4004 21.8004H51.6004V25.8004V25.8004Z" fill="#144E8C"></path><path d="M49.6004 30.9H41.3004C38.1004 30.9 35.4004 28.3 35.4004 25.1V24C36.4004 25.8 38.2004 26.9 40.4004 26.9H49.6004V30.9V30.9Z" fill="#144E8C"></path><path d="M62.5996 0.800391H71.9996V34.7004H62.6996V0.800391H62.5996ZM79.3996 34.7004V0.800391H86.4996C91.7996 0.800391 95.4996 1.00039 97.6996 1.60039C99.8996 2.10039 101.8 2.90039 103.5 4.10039C105.6 5.60039 107.3 7.50039 108.4 9.90039C109.5 12.2004 110.1 14.9004 110.1 17.9004C110.1 20.9004 109.5 23.5004 108.4 25.9004C107.3 28.2004 105.6 30.1004 103.5 31.6004C101.9 32.7004 99.9996 33.6004 97.8996 34.1004C95.7996 34.6004 92.5996 34.8004 88.0996 34.8004H86.4996L79.3996 34.7004ZM88.4996 27.1004H90.0996C93.6996 27.1004 96.3996 26.4004 97.9996 24.9004C99.6996 23.4004 100.5 21.1004 100.5 17.8004C100.5 14.5004 99.6996 12.2004 97.9996 10.7004C96.2996 9.20039 93.6996 8.40039 90.0996 8.40039H88.4996V27.1004ZM140.2 2.10039V12.2004C139 10.8004 137.7 9.80039 136.4 9.10039C135.2 8.40039 133.8 8.10039 132.4 8.10039C129.7 8.10039 127.6 9.00039 125.9 10.8004C124.3 12.6004 123.4 15.0004 123.4 17.9004C123.4 20.6004 124.2 22.9004 125.9 24.7004C127.6 26.5004 129.7 27.4004 132.3 27.4004C133.7 27.4004 135.1 27.1004 136.3 26.4004C137.5 25.8004 138.8 24.7004 140.1 23.3004V33.4004C138.6 34.1004 137.2 34.6004 135.7 35.0004C134.2 35.4004 132.8 35.5004 131.3 35.5004C129.4 35.5004 127.7 35.3004 126.2 34.8004C124.6 34.4004 123.2 33.7004 121.9 32.8004C119.4 31.1004 117.4 29.0004 116.1 26.4004C114.8 23.8004 114.1 20.9004 114.1 17.7004C114.1 15.1004 114.5 12.8004 115.3 10.6004C116.1 8.50039 117.4 6.60039 119.1 4.80039C120.7 3.20039 122.5 1.90039 124.5 1.10039C126.5 0.300391 128.8 -0.0996094 131.2 -0.0996094C132.7 -0.0996094 134.1 0.100391 135.6 0.400391C137.3 0.900391 138.8 1.40039 140.2 2.10039Z" fill="white"></path><path d="M124.9 47.5991C129.8 45.3991 134 45.9991 140.2 47.8991C135 45.6991 131 44.4991 124.9 46.4991C123.1 47.0991 124 47.9991 124.9 47.5991Z" fill="#C9252C"></path><path d="M65.0996 40.6008C64.9996 40.5008 64.7996 40.4008 64.6996 40.3008C64.5996 40.2008 64.3996 40.2008 64.1996 40.2008C63.8996 40.2008 63.5996 40.3008 63.3996 40.5008C63.1996 40.7008 63.0996 41.0008 63.0996 41.3008C63.0996 41.6008 63.1996 41.9008 63.3996 42.1008C63.5996 42.3008 63.7996 42.4008 64.0996 42.4008C64.2996 42.4008 64.3996 42.4008 64.5996 42.3008C64.7996 42.2008 64.8996 42.1008 64.9996 42.0008V42.5008C64.8996 42.6008 64.6996 42.7008 64.5996 42.7008C64.3996 42.7008 64.2996 42.8008 64.0996 42.8008C63.8996 42.8008 63.6996 42.8008 63.4996 42.7008C63.2996 42.6008 63.0996 42.5008 62.9996 42.4008C62.8996 42.3008 62.7996 42.1008 62.6996 41.9008C62.5996 41.7008 62.5996 41.5008 62.5996 41.3008C62.5996 41.1008 62.5996 40.9008 62.6996 40.7008C62.7996 40.5008 62.8996 40.3008 62.9996 40.2008C63.1996 40.0008 63.2996 39.9008 63.4996 39.9008C63.6996 39.9008 63.8996 39.8008 64.0996 39.8008C64.2996 39.8008 64.3996 39.8008 64.5996 39.9008C64.7996 39.9008 64.8996 40.0008 65.0996 40.1008V40.6008Z" fill="white"></path><path d="M65.7998 41.9004C65.7998 41.8004 65.7998 41.6004 65.8998 41.5004C65.9998 41.4004 65.9998 41.3004 66.0998 41.2004C66.1998 41.1004 66.2998 41.0004 66.3998 41.0004C66.4998 40.9004 66.6998 40.9004 66.7998 40.9004C66.8998 40.9004 67.0998 40.9004 67.1998 41.0004C67.2998 41.0004 67.3998 41.1004 67.4998 41.2004C67.5998 41.3004 67.6998 41.4004 67.6998 41.5004C67.6998 41.6004 67.7998 41.7004 67.7998 41.9004C67.7998 42.1004 67.7998 42.2004 67.6998 42.3004C67.5998 42.4004 67.5998 42.5004 67.4998 42.6004C67.3998 42.7004 67.2998 42.8004 67.0998 42.8004C66.9998 42.8004 66.7998 42.9004 66.6998 42.9004C66.5998 42.9004 66.3998 42.9004 66.2998 42.8004C66.1998 42.7004 66.0998 42.7004 65.9998 42.6004C65.8998 42.5004 65.7998 42.4004 65.7998 42.3004C65.7998 42.2004 65.7998 42.0004 65.7998 41.9004ZM67.3998 41.9004C67.3998 41.7004 67.2998 41.6004 67.1998 41.4004C67.0998 41.2004 66.9998 41.2004 66.7998 41.2004C66.5998 41.2004 66.4998 41.3004 66.3998 41.4004C66.2998 41.5004 66.1998 41.7004 66.1998 41.9004C66.1998 42.1004 66.2998 42.2004 66.3998 42.4004C66.4998 42.5004 66.5998 42.6004 66.7998 42.6004C66.9998 42.6004 67.0998 42.5004 67.1998 42.4004C67.2998 42.2004 67.3998 42.1004 67.3998 41.9004Z" fill="white"></path><path d="M68.9996 41.3004C69.0996 41.2004 69.0996 41.1004 69.1996 41.0004C69.2996 40.9004 69.3996 40.9004 69.4996 40.9004C69.5996 40.9004 69.5996 40.9004 69.6996 40.9004C69.7996 40.9004 69.7996 40.9004 69.8996 41.0004L69.6996 41.4004C69.6996 41.4004 69.5996 41.4004 69.5996 41.3004C69.5996 41.3004 69.4996 41.3004 69.3996 41.3004C69.2996 41.3004 69.1996 41.4004 69.0996 41.5004C68.9996 41.6004 68.9996 41.7004 68.9996 42.0004V42.8004H68.5996V40.9004H68.9996V41.3004Z" fill="white"></path><path d="M70.6998 41.3004C70.7998 41.2004 70.7998 41.1004 70.8998 41.0004C70.9998 40.9004 71.0998 40.9004 71.1998 40.9004C71.2998 40.9004 71.2998 40.9004 71.3998 40.9004C71.4998 40.9004 71.4998 40.9004 71.5998 41.0004L71.3998 41.4004C71.3998 41.4004 71.2998 41.4004 71.2998 41.3004C71.2998 41.3004 71.1998 41.3004 71.0998 41.3004C70.9998 41.3004 70.8998 41.4004 70.7998 41.5004C70.6998 41.6004 70.6998 41.8004 70.6998 42.1004V42.9004H70.2998V41.0004H70.6998V41.3004V41.3004Z" fill="white"></path><path d="M73.9004 42.0008H72.4004C72.4004 42.2008 72.5004 42.3008 72.6004 42.4008C72.7004 42.5008 72.8004 42.6008 73.0004 42.6008C73.1004 42.6008 73.3004 42.6008 73.3004 42.5008C73.4004 42.4008 73.5004 42.3008 73.5004 42.2008L73.9004 42.4008C73.8004 42.6008 73.7004 42.7008 73.5004 42.8008C73.3004 42.9008 73.2004 42.9008 72.9004 42.9008C72.6004 42.9008 72.4004 42.8008 72.2004 42.6008C72.0004 42.4008 71.9004 42.2008 71.9004 41.8008C71.9004 41.5008 72.0004 41.3008 72.2004 41.1008C72.4004 40.9008 72.6004 40.8008 72.9004 40.8008C73.2004 40.8008 73.4004 40.9008 73.6004 41.1008C73.8004 41.3008 73.9004 41.6008 73.9004 42.0008ZM73.4004 41.7008C73.4004 41.6008 73.3004 41.5008 73.2004 41.4008C73.1004 41.3008 73.0004 41.3008 72.8004 41.3008C72.7004 41.3008 72.5004 41.3008 72.5004 41.4008C72.4004 41.5008 72.3004 41.6008 72.3004 41.7008H73.4004Z" fill="white"></path><path d="M76.0004 41.4992C75.9004 41.3992 75.9004 41.3992 75.8004 41.2992C75.7004 41.2992 75.6004 41.1992 75.5004 41.1992C75.3004 41.1992 75.2004 41.2992 75.1004 41.3992C75.0004 41.4992 74.9004 41.6992 74.9004 41.8992C74.9004 42.0992 75.0004 42.2992 75.1004 42.3992C75.2004 42.4992 75.4004 42.5992 75.5004 42.5992C75.6004 42.5992 75.7004 42.5992 75.8004 42.4992C75.9004 42.3992 76.0004 42.3992 76.0004 42.2992V42.7992C75.9004 42.8992 75.8004 42.8992 75.7004 42.8992C75.6004 42.8992 75.5004 42.8992 75.4004 42.8992C75.1004 42.8992 74.9004 42.7992 74.7004 42.5992C74.5004 42.3992 74.4004 42.1992 74.4004 41.7992C74.4004 41.4992 74.5004 41.1992 74.7004 40.9992C74.9004 40.7992 75.2004 40.6992 75.5004 40.6992C75.6004 40.6992 75.7004 40.6992 75.8004 40.6992C75.9004 40.6992 76.0004 40.7992 76.0004 40.7992V41.4992Z" fill="white"></path><path d="M76.8 42.9008V41.4008H76.5V41.0008H76.8V40.3008H77.2V41.0008H77.5V41.4008H77.2V42.9008H76.8Z" fill="white"></path><path d="M80.2002 43V40H80.8002C81.2002 40 81.5002 40 81.7002 40.1C81.9002 40.1 82.0002 40.2 82.2002 40.3C82.4002 40.4 82.5002 40.6 82.6002 40.8C82.7002 41 82.7002 41.2 82.7002 41.5C82.7002 41.8 82.7002 42 82.6002 42.2C82.5002 42.4 82.4002 42.6 82.2002 42.7C82.1002 42.8 81.9002 42.9 81.8002 42.9C81.6002 42.9 81.4002 43 81.0002 43H80.9002H80.2002ZM80.7002 42.6H81.1002C81.3002 42.6 81.5002 42.6 81.6002 42.6C81.7002 42.6 81.8002 42.5 81.9002 42.4C82.0002 42.3 82.1002 42.2 82.1002 42C82.2002 41.9 82.2002 41.7 82.2002 41.5C82.2002 41.3 82.2002 41.1 82.1002 41C82.0002 40.9 82.0002 40.7 81.9002 40.6C81.8002 40.5 81.7002 40.5 81.6002 40.5C81.5002 40.5 81.3002 40.5 81.1002 40.5H80.9002H80.7002V42.6Z" fill="white"></path><path d="M83.5 40.2004C83.5 40.1004 83.5 40.1004 83.6 40.0004C83.6 40.0004 83.7 39.9004 83.8 39.9004C83.9 39.9004 83.9 39.9004 84 40.0004C84.1 40.1004 84.1 40.1004 84.1 40.2004C84.1 40.3004 84.1 40.3004 84 40.4004C83.9 40.4004 83.9 40.5004 83.8 40.5004C83.7 40.5004 83.7 40.5004 83.6 40.4004C83.5 40.4004 83.5 40.3004 83.5 40.2004ZM83.6 43.0004V41.1004H84V43.0004H83.6Z" fill="white"></path><path d="M86.7004 43H86.3004V42.8C86.2004 42.9 86.1004 43 86.0004 43C85.9004 43 85.8004 43.1 85.7004 43.1C85.4004 43.1 85.2004 43 85.1004 42.8C84.9004 42.6 84.9004 42.4 84.9004 42C84.9004 41.7 85.0004 41.5 85.1004 41.3C85.3004 41.1 85.5004 41 85.7004 41C85.9004 41 86.0004 41 86.1004 41.1C86.2004 41.2 86.3004 41.3 86.3004 41.4V41.1H86.7004V43ZM86.3004 42C86.3004 41.8 86.2004 41.7 86.2004 41.5C86.1004 41.4 86.0004 41.3 85.8004 41.3C85.6004 41.3 85.5004 41.4 85.4004 41.5C85.3004 41.6 85.3004 41.8 85.3004 42C85.3004 42.2 85.4004 42.4 85.4004 42.5C85.4004 42.6 85.6004 42.7 85.8004 42.7C86.0004 42.7 86.1004 42.6 86.2004 42.5C86.3004 42.4 86.3004 42.2 86.3004 42Z" fill="white"></path><path d="M89.3996 42.9C89.3996 43.3 89.2996 43.5 89.1996 43.7C89.0996 43.9 88.7996 43.9 88.3996 43.9C88.0996 43.9 87.8996 43.8 87.7996 43.7C87.5996 43.6 87.5996 43.4 87.5996 43.3H88.0996C88.0996 43.4 88.0996 43.4 88.1996 43.5C88.2996 43.5 88.3996 43.6 88.4996 43.6C88.6996 43.6 88.7996 43.6 88.8996 43.5C88.9996 43.4 88.9996 43.3 88.9996 43.1V42.8C88.8996 42.9 88.7996 43 88.6996 43C88.5996 43 88.4996 43.1 88.3996 43.1C88.0996 43.1 87.8996 43 87.7996 42.8C87.6996 42.6 87.5996 42.4 87.5996 42C87.5996 41.7 87.6996 41.5 87.7996 41.3C87.9996 41.1 88.1996 41 88.3996 41C88.5996 41 88.6996 41 88.7996 41.1C88.8996 41.2 88.9996 41.3 88.9996 41.4V41.1H89.3996V42.9V42.9ZM88.9996 42C88.9996 41.8 88.8996 41.7 88.8996 41.5C88.7996 41.4 88.6996 41.3 88.4996 41.3C88.2996 41.3 88.1996 41.4 88.0996 41.5C87.9996 41.7 87.9996 41.8 87.9996 42C87.9996 42.2 88.0996 42.4 88.0996 42.5C88.1996 42.6 88.2996 42.7 88.4996 42.7C88.6996 42.7 88.7996 42.6 88.8996 42.5C88.9996 42.4 88.9996 42.2 88.9996 42Z" fill="white"></path><path d="M90.4004 43V41.1H90.8004V41.4C90.9004 41.3 91.0004 41.2 91.1004 41.1C91.2004 41 91.4004 41 91.5004 41C91.6004 41 91.8004 41 91.9004 41.1C92.0004 41.1 92.1004 41.2 92.1004 41.3C92.1004 41.3 92.2004 41.4 92.2004 41.5C92.2004 41.6 92.2004 41.7 92.2004 41.9V43H91.8004V42C91.8004 41.8 91.8004 41.6 91.7004 41.5C91.6004 41.4 91.5004 41.4 91.4004 41.4C91.3004 41.4 91.2004 41.4 91.1004 41.5C91.0004 41.5 91.0004 41.6 90.9004 41.7C90.9004 41.7 90.9004 41.8 90.8004 41.9C90.8004 42 90.8004 42.1 90.8004 42.2V43H90.4004Z" fill="white"></path><path d="M93 42C93 41.9 93 41.7 93.1 41.6C93.1 41.5 93.2 41.4 93.3 41.3C93.4 41.2 93.5 41.1 93.6 41.1C93.7 41.1 93.9 41 94 41C94.1 41 94.3 41 94.4 41.1C94.5 41.1 94.6 41.2 94.7 41.3C94.8 41.4 94.9 41.5 94.9 41.6C95 41.7 95 41.8 95 42C95 42.2 95 42.3 94.9 42.4C94.9 42.5 94.8 42.6 94.7 42.7C94.6 42.8 94.5 42.9 94.4 42.9C94.3 42.9 94.1 43 94 43C93.9 43 93.7 43 93.6 42.9C93.5 42.8 93.4 42.8 93.3 42.7C93.2 42.6 93.1 42.5 93.1 42.4C93 42.3 93 42.2 93 42ZM94.6 42C94.6 41.8 94.5 41.7 94.4 41.6C94.3 41.5 94.2 41.4 94 41.4C93.8 41.4 93.7 41.5 93.6 41.6C93.5 41.7 93.4 41.9 93.4 42C93.4 42.2 93.5 42.3 93.6 42.4C93.7 42.5 93.8 42.6 94 42.6C94.2 42.6 94.3 42.5 94.4 42.4C94.5 42.4 94.6 42.2 94.6 42Z" fill="white"></path><path d="M95.5996 42.6008L95.9996 42.4008C95.9996 42.5008 96.0996 42.6008 96.1996 42.6008C96.2996 42.7008 96.3996 42.7008 96.4996 42.7008C96.5996 42.7008 96.6996 42.7008 96.6996 42.6008C96.7996 42.6008 96.7996 42.5008 96.7996 42.4008C96.7996 42.3008 96.6996 42.2008 96.4996 42.1008C96.3996 42.1008 96.3996 42.1008 96.2996 42.0008C96.0996 41.9008 95.9996 41.8008 95.8996 41.7008C95.7996 41.6008 95.7996 41.5008 95.7996 41.4008C95.7996 41.2008 95.8996 41.1008 95.9996 41.0008C96.0996 40.9008 96.2996 40.8008 96.4996 40.8008C96.6996 40.8008 96.7996 40.8008 96.8996 40.9008C96.9996 40.9008 97.0996 41.0008 97.0996 41.1008L96.7996 41.3008C96.7996 41.2008 96.6996 41.2008 96.6996 41.2008C96.5996 41.2008 96.5996 41.2008 96.4996 41.2008C96.3996 41.2008 96.2996 41.2008 96.2996 41.3008C96.2996 41.3008 96.1996 41.4008 96.1996 41.5008C96.1996 41.6008 96.2996 41.7008 96.4996 41.8008C96.5996 41.8008 96.5996 41.8008 96.6996 41.9008C96.8996 42.0008 96.9996 42.1008 97.0996 42.1008C97.1996 42.1008 97.1996 42.3008 97.1996 42.4008C97.1996 42.6008 97.0996 42.7008 96.9996 42.9008C96.8996 43.1008 96.5996 43.0008 96.3996 43.0008C96.1996 43.0008 96.0996 43.0008 95.8996 42.9008C95.7996 42.9008 95.6996 42.8008 95.5996 42.6008Z" fill="white"></path><path d="M97.9004 40.2004C97.9004 40.1004 97.9004 40.1004 98.0004 40.0004C98.1004 40.0004 98.1004 39.9004 98.2004 39.9004C98.3004 39.9004 98.3004 39.9004 98.4004 40.0004C98.4004 40.0004 98.5004 40.1004 98.5004 40.2004C98.5004 40.3004 98.5004 40.3004 98.4004 40.4004C98.3004 40.4004 98.3004 40.5004 98.2004 40.5004C98.1004 40.5004 98.1004 40.5004 98.0004 40.4004C97.9004 40.4004 97.9004 40.3004 97.9004 40.2004ZM97.9004 43.0004V41.1004H98.3004V43.0004H97.9004Z" fill="white"></path><path d="M99.0996 42.6008L99.4996 42.4008C99.4996 42.5008 99.5996 42.6008 99.6996 42.6008C99.7996 42.7008 99.8996 42.7008 99.9996 42.7008C100.1 42.7008 100.2 42.7008 100.2 42.6008C100.3 42.6008 100.3 42.5008 100.3 42.4008C100.3 42.3008 100.2 42.2008 99.9996 42.1008C99.8996 42.1008 99.8996 42.1008 99.7996 42.0008C99.5996 41.9008 99.4996 41.8008 99.3996 41.7008C99.2996 41.6008 99.2996 41.5008 99.2996 41.4008C99.2996 41.2008 99.3996 41.1008 99.4996 41.0008C99.5996 40.9008 99.7996 40.8008 99.9996 40.8008C100.2 40.8008 100.3 40.8008 100.4 40.9008C100.5 40.9008 100.6 41.0008 100.6 41.1008L100.3 41.3008C100.3 41.2008 100.2 41.2008 100.2 41.2008C100.1 41.2008 100.1 41.2008 99.9996 41.2008C99.8996 41.2008 99.7996 41.2008 99.7996 41.3008C99.7996 41.3008 99.6996 41.4008 99.6996 41.5008C99.6996 41.6008 99.7996 41.7008 99.9996 41.8008C100.1 41.8008 100.1 41.8008 100.2 41.9008C100.4 42.0008 100.5 42.1008 100.6 42.1008C100.7 42.2008 100.7 42.3008 100.7 42.4008C100.7 42.6008 100.6 42.7008 100.5 42.9008C100.4 43.0008 100.2 43.1008 99.8996 43.1008C99.6996 43.1008 99.5996 43.1008 99.3996 43.0008C99.2996 42.9008 99.1996 42.8008 99.0996 42.6008Z" fill="white"></path><path d="M105.6 40.4992C105.5 40.3992 105.3 40.2992 105.2 40.1992C105 40.0992 104.9 40.0992 104.7 40.0992C104.4 40.0992 104.1 40.1992 103.9 40.3992C103.7 40.5992 103.6 40.8992 103.6 41.1992C103.6 41.4992 103.7 41.7992 103.9 41.9992C104.1 42.1992 104.3 42.2992 104.6 42.2992C104.8 42.2992 104.9 42.2992 105.1 42.1992C105.3 42.0992 105.4 41.9992 105.6 41.8992V42.3992C105.5 42.4992 105.3 42.5992 105.2 42.5992C105.1 42.5992 104.9 42.6992 104.7 42.6992C104.5 42.6992 104.3 42.6992 104.1 42.5992C103.9 42.4992 103.7 42.3992 103.6 42.2992C103.5 42.1992 103.4 41.9992 103.3 41.7992C103.2 41.5992 103.2 41.3992 103.2 41.1992C103.2 40.9992 103.2 40.7992 103.3 40.5992C103.4 40.3992 103.5 40.1992 103.6 40.0992C103.8 39.8992 103.9 39.7992 104.1 39.7992C104.3 39.6992 104.5 39.6992 104.7 39.6992C104.9 39.6992 105 39.6992 105.2 39.7992C105.3 39.7992 105.5 39.8992 105.6 39.9992V40.4992Z" fill="white"></path><path d="M106.3 41.8008C106.3 41.7008 106.3 41.5008 106.4 41.4008C106.4 41.3008 106.5 41.2008 106.6 41.1008C106.7 41.0008 106.8 40.9008 106.9 40.9008C107 40.9008 107.2 40.8008 107.3 40.8008C107.4 40.8008 107.6 40.8008 107.7 40.9008C107.8 40.9008 107.9 41.0008 108 41.1008C108.1 41.2008 108.2 41.3008 108.2 41.4008C108.2 41.5008 108.3 41.6008 108.3 41.8008C108.3 42.0008 108.3 42.1008 108.2 42.2008C108.1 42.3008 108.1 42.4008 108 42.5008C107.9 42.6008 107.8 42.7008 107.7 42.7008C107.6 42.7008 107.4 42.8008 107.3 42.8008C107.2 42.8008 107 42.8008 106.9 42.7008C106.8 42.7008 106.7 42.6008 106.6 42.5008C106.5 42.4008 106.4 42.3008 106.4 42.2008C106.3 42.1008 106.3 42.0008 106.3 41.8008ZM107.9 41.8008C107.9 41.6008 107.8 41.5008 107.7 41.3008C107.6 41.1008 107.5 41.1008 107.3 41.1008C107.1 41.1008 107 41.2008 106.9 41.3008C106.8 41.4008 106.7 41.6008 106.7 41.8008C106.7 42.0008 106.8 42.1008 106.9 42.3008C107 42.4008 107.1 42.5008 107.3 42.5008C107.5 42.5008 107.6 42.4008 107.7 42.3008C107.9 42.2008 107.9 42.0008 107.9 41.8008Z" fill="white"></path><path d="M109.5 41.2008C109.5 41.1008 109.6 41.0008 109.7 40.9008C109.8 40.8008 109.9 40.8008 110 40.8008C110.1 40.8008 110.1 40.8008 110.2 40.8008C110.3 40.8008 110.3 40.8008 110.4 40.9008L110.2 41.3008C110.2 41.3008 110.1 41.3008 110.1 41.2008C110.1 41.2008 110 41.2008 109.9 41.2008C109.8 41.2008 109.7 41.3008 109.6 41.4008C109.5 41.5008 109.5 41.7008 109.5 42.0008V42.8008H109.1V40.9008H109.5V41.2008V41.2008Z" fill="white"></path><path d="M111.3 41.2008C111.3 41.1008 111.4 41.0008 111.5 40.9008C111.6 40.8008 111.7 40.8008 111.8 40.8008C111.9 40.8008 111.9 40.8008 112 40.8008C112.1 40.8008 112.1 40.8008 112.2 40.9008L112 41.3008C112 41.3008 111.9 41.3008 111.9 41.2008C111.9 41.2008 111.8 41.2008 111.7 41.2008C111.6 41.2008 111.5 41.3008 111.4 41.4008C111.3 41.5008 111.3 41.7008 111.3 42.0008V42.8008H110.9V40.9008H111.3V41.2008V41.2008Z" fill="white"></path><path d="M114.4 41.8992H112.9C112.9 42.0992 113 42.1992 113.1 42.2992C113.2 42.3992 113.3 42.4992 113.5 42.4992C113.6 42.4992 113.8 42.4992 113.8 42.3992C113.9 42.2992 114 42.1992 114 42.0992L114.4 42.2992C114.3 42.4992 114.2 42.5992 114 42.6992C113.8 42.7992 113.7 42.7992 113.5 42.7992C113.2 42.7992 112.9 42.6992 112.8 42.4992C112.6 42.2992 112.5 42.0992 112.5 41.6992C112.5 41.3992 112.6 41.1992 112.8 40.9992C113 40.7992 113.2 40.6992 113.5 40.6992C113.8 40.6992 114 40.7992 114.2 40.9992C114.3 41.1992 114.4 41.4992 114.4 41.8992ZM114 41.5992C114 41.4992 113.9 41.3992 113.8 41.2992C113.7 41.1992 113.6 41.1992 113.4 41.1992C113.3 41.1992 113.1 41.1992 113.1 41.2992C113 41.3992 112.9 41.4992 112.9 41.5992H114Z" fill="white"></path><path d="M116.5 41.3996C116.4 41.2996 116.4 41.2996 116.3 41.1996C116.2 41.1996 116.1 41.0996 116 41.0996C115.8 41.0996 115.7 41.1996 115.6 41.2996C115.5 41.3996 115.4 41.5996 115.4 41.7996C115.4 41.9996 115.5 42.1996 115.6 42.2996C115.7 42.3996 115.9 42.4996 116 42.4996C116.1 42.4996 116.2 42.4996 116.3 42.3996C116.4 42.3996 116.5 42.2996 116.5 42.1996V42.6996C116.4 42.6996 116.3 42.7996 116.2 42.7996C116.1 42.7996 116 42.7996 115.9 42.7996C115.6 42.7996 115.4 42.6996 115.2 42.4996C115 42.2996 114.9 42.0996 114.9 41.6996C114.9 41.3996 115 41.0996 115.2 40.8996C115.4 40.6996 115.6 40.5996 116 40.5996C116.1 40.5996 116.2 40.5996 116.3 40.5996C116.4 40.5996 116.5 40.5996 116.5 40.6996V41.3996Z" fill="white"></path><path d="M117.3 42.7992V41.2992H117V40.8992H117.3V40.1992H117.7V40.8992H118V41.2992H117.7V42.7992H117.3Z" fill="white"></path><path d="M121.5 40.3004V42.9004H121V40.3004H120.2V39.9004H122.2V40.3004H121.5Z" fill="white"></path><path d="M122.9 41.2008C122.9 41.1008 123 41.0008 123.1 40.9008C123.2 40.8008 123.3 40.8008 123.4 40.8008C123.5 40.8008 123.5 40.8008 123.6 40.8008C123.7 40.8008 123.7 40.8008 123.8 40.9008L123.6 41.3008C123.6 41.3008 123.5 41.3008 123.5 41.2008C123.5 41.2008 123.4 41.2008 123.3 41.2008C123.2 41.2008 123.1 41.3008 123 41.4008C122.9 41.5008 122.9 41.7008 122.9 42.0008V42.8008H122.5V40.9008H122.9V41.2008V41.2008Z" fill="white"></path><path d="M126.1 41.8996H124.6C124.6 42.0996 124.7 42.1996 124.8 42.2996C124.9 42.3996 125 42.3996 125.2 42.3996C125.3 42.3996 125.5 42.3996 125.5 42.2996C125.6 42.1996 125.7 42.0996 125.7 41.9996L126.1 42.1996C126 42.3996 125.9 42.4996 125.7 42.5996C125.5 42.6996 125.4 42.6996 125.2 42.6996C124.9 42.6996 124.6 42.5996 124.5 42.3996C124.3 42.1996 124.2 41.9996 124.2 41.5996C124.2 41.2996 124.3 40.9996 124.5 40.8996C124.7 40.6996 124.9 40.5996 125.2 40.5996C125.5 40.5996 125.7 40.6996 125.9 40.8996C126 41.2996 126.1 41.4996 126.1 41.8996ZM125.6 41.5996C125.6 41.4996 125.5 41.3996 125.4 41.2996C125.3 41.1996 125.2 41.1996 125 41.1996C124.9 41.1996 124.7 41.1996 124.7 41.2996C124.6 41.3996 124.5 41.4996 124.5 41.5996H125.6Z" fill="white"></path><path d="M128.6 42.8008H128.2V42.6008C128.1 42.7008 128 42.8008 127.9 42.8008C127.8 42.9008 127.7 42.9008 127.6 42.9008C127.3 42.9008 127.1 42.8008 127 42.6008C126.9 42.4008 126.8 42.2008 126.8 41.8008C126.8 41.5008 126.9 41.3008 127 41.1008C127.2 40.9008 127.4 40.8008 127.6 40.8008C127.7 40.8008 127.9 40.8008 128 40.9008C128.1 41.0008 128.2 41.1008 128.2 41.2008V40.9008H128.6V42.8008ZM128.2 41.9008C128.2 41.7008 128.2 41.6008 128.1 41.4008C128 41.3008 127.9 41.2008 127.7 41.2008C127.5 41.2008 127.4 41.3008 127.3 41.4008C127.2 41.5008 127.2 41.7008 127.2 41.9008C127.2 42.1008 127.2 42.3008 127.3 42.4008C127.4 42.5008 127.5 42.6008 127.7 42.6008C127.9 42.6008 128 42.5008 128.1 42.4008C128.1 42.2008 128.2 42.0008 128.2 41.9008Z" fill="white"></path><path d="M129.5 42.7992V41.2992H129.2V40.8992H129.5V40.1992H129.9V40.8992H130.2V41.2992H130V42.7992H129.5Z" fill="white"></path><path d="M131.3 42.8008H130.9V40.9008H131.3V41.2008C131.4 41.1008 131.5 41.0008 131.6 40.9008C131.7 40.8008 131.8 40.8008 132 40.8008C132.2 40.8008 132.3 40.8008 132.4 40.9008C132.5 41.0008 132.6 41.1008 132.6 41.2008C132.7 41.1008 132.8 41.0008 132.9 40.9008C133 40.8008 133.1 40.8008 133.3 40.8008C133.4 40.8008 133.5 40.8008 133.6 40.9008C133.7 40.9008 133.8 41.0008 133.8 41.1008C133.8 41.1008 133.8 41.2008 133.9 41.3008C133.9 41.4008 133.9 41.4008 133.9 41.5008V41.6008V42.8008H133.5V41.8008C133.5 41.5008 133.5 41.4008 133.4 41.3008C133.4 41.2008 133.3 41.2008 133.1 41.2008C132.9 41.2008 132.8 41.2008 132.7 41.4008C132.6 41.5008 132.6 41.7008 132.6 42.0008V42.9008H132.2V41.9008C132.2 41.7008 132.2 41.5008 132.1 41.4008C132 41.3008 132 41.3008 131.8 41.3008C131.7 41.3008 131.6 41.3008 131.6 41.4008C131.5 41.4008 131.5 41.5008 131.4 41.6008C131.4 41.6008 131.4 41.7008 131.3 41.8008C131.3 41.9008 131.3 42.0008 131.3 42.2008V42.8008Z" fill="white"></path><path d="M136.6 41.8996H135C135 42.0996 135.1 42.1996 135.2 42.2996C135.3 42.3996 135.4 42.3996 135.6 42.3996C135.7 42.3996 135.9 42.3996 135.9 42.2996C136 42.1996 136.1 42.0996 136.1 41.9996L136.5 42.1996C136.4 42.3996 136.3 42.4996 136.1 42.5996C135.9 42.6996 135.8 42.6996 135.5 42.6996C135.2 42.6996 134.9 42.5996 134.8 42.3996C134.6 42.1996 134.5 41.9996 134.5 41.5996C134.5 41.2996 134.6 40.9996 134.8 40.8996C135 40.7996 135.2 40.5996 135.5 40.5996C135.8 40.5996 136 40.6996 136.2 40.8996C136.4 41.0996 136.6 41.4996 136.6 41.8996ZM136.1 41.5996C136.1 41.4996 136 41.3996 135.9 41.2996C135.8 41.1996 135.7 41.1996 135.5 41.1996C135.4 41.1996 135.2 41.1996 135.2 41.2996C135.1 41.3996 135.1 41.4996 135 41.5996H136.1Z" fill="white"></path><path d="M137.3 42.8008V40.9008H137.7V41.2008C137.8 41.1008 137.9 41.0008 138 40.9008C138.1 40.8008 138.3 40.8008 138.4 40.8008C138.5 40.8008 138.7 40.8008 138.8 40.9008C138.9 40.9008 139 41.0008 139 41.1008C139 41.1008 139.1 41.2008 139.1 41.3008C139.1 41.4008 139.1 41.5008 139.1 41.7008V42.9008H138.7V41.9008C138.7 41.7008 138.7 41.5008 138.6 41.4008C138.5 41.3008 138.4 41.3008 138.3 41.3008C138.2 41.3008 138.1 41.3008 138 41.4008C137.9 41.5008 137.9 41.5008 137.8 41.6008C137.8 41.6008 137.7 41.7008 137.7 41.8008C137.7 41.9008 137.7 42.0008 137.7 42.1008V43.0008L137.3 42.8008Z" fill="white"></path><path d="M140 42.7992V41.2992H139.7V40.8992H140V40.1992H140.4V40.8992H140.7V41.2992H140.4V42.7992H140Z" fill="white"></path></g><defs><clipPath id="clip0_367_151"><rect width="140.8" height="47.9" fill="white"></rect></clipPath></defs></svg>